<svg width="100" height="100" viewBox="0 0 100 100" fill="none" xmlns="http://www.w3.org/2000/svg">
<path d="M66.6667 74.5833C72.9167 70.8333 77.9167 65.4166 80.8333 58.3333H84.1667C85.8333 58.3333 87.5 56.6666 87.5 54.1666V37.4999C87.5 34.9999 85.8333 33.3333 84.1667 33.3333H80.8333C79.1735 29.1979 76.6934 25.4415 73.5426 22.2907C70.3917 19.1398 66.6353 16.6597 62.5 14.9999V11.6666C62.5 9.99992 60.8333 8.33325 58.3333 8.33325H41.6667C39.1667 8.33325 37.5 9.99992 37.5 11.6666V14.9999C33.3647 16.6597 29.6083 19.1398 26.4574 22.2907C23.3066 25.4415 20.8265 29.1979 19.1667 33.3333H15.8333C14.1667 33.3333 12.5 34.9999 12.5 37.4999V54.1666C12.5 56.6666 14.1667 58.3333 15.8333 58.3333H19.1667C22.0833 65.4166 27.0833 70.8333 33.3333 74.5833" stroke="currentColor" stroke-width="7" stroke-linecap="round" stroke-linejoin="round"/>
<path d="M49.9997 62.4998C59.2044 62.4998 66.6663 55.0379 66.6663 45.8332C66.6663 36.6284 59.2044 29.1665 49.9997 29.1665C40.7949 29.1665 33.333 36.6284 33.333 45.8332C33.333 55.0379 40.7949 62.4998 49.9997 62.4998Z" stroke="currentColor" stroke-width="7" stroke-linecap="round" stroke-linejoin="round"/>
<path d="M33.333 45.8332H66.6663M49.9997 29.1665V62.4998M27.9163 70.8332C23.7497 73.3332 20.833 75.8332 20.833 79.1665C20.833 86.2498 33.7497 91.6665 49.9997 91.6665C66.2497 91.6665 79.1663 86.2498 79.1663 79.1665C79.1663 75.8332 76.2497 73.3332 72.083 70.8332" stroke="currentColor" stroke-width="7" stroke-linecap="round" stroke-linejoin="round"/>
</svg>
